{"title":"Red Dog 2011 DVDrip English Klam","uid":6867616,"size":1642495843,"categoryP":"video","categoryS":"movies","magnet":"?xt=urn:btih:a94d92870ea8da18bc3dad96126f6a1fd43f57f3&amp;dn=Red+Dog+2011+DVDrip+English+Klam&amp;tr=udp%3A%2F%2Ftracker.openbittorrent.com%3A80&amp;tr=udp%3A%2F%2Fopen.demonii.com%3A1337&amp;tr=udp%3A%2F%2Ftracker.coppersurfer.tk%3A6969&amp;tr=udp%3A%2F%2Fexodus.desync.com%3A6969","seeders":1,"leechers":0,"uploader":"Klambake","files":-1,"time":1323166003,"description":"With: osh Lucas, Rachael Taylor en Keisha Castle-Hughes\n\nDit familiedrama toont de impact die een zwerfhond heeft op het leven van een groep ruige mijnwerkers. Red Dog brengt een gemeenschap samen tijdens een periode wanneer een klein afgelegen stadje uitgroeit tot een grote mijnbouwstad. Red Dog komt voor het eerst in de stad wanneer hij slim genoeg is om mee te liften door de Australische achterlanden. Op zijn beurt wekt Red Dog moed op bij sommige mannen, redt het leven van anderen, en biedt een troostend oor wanneer het het meest nodig is. Hoewel de mijnwerkers hem liefhebben proberen de beheerders van het woonwagenpark waar ze allemaal wonen Red Dog te verjagen. Uiteindelijk zal hij het op moeten nemen tegen zijn aartsvijand, Red Cat.\n\nBased on the legendary true story of the Red Dog who united a disparate local community while roaming the Australian outback in search of his long lost master. \n\n------------------------ Dutch Friends ------------------------\n---------------------------------------------------------------\n- Bezoek ook eens mijn vrienden op: &lt;a href=&quot; http://www.Film-Test.nl&quot; rel=&quot;nofollow&quot; target=&quot;_NEW&quot;&gt; http://www.Film-Test.nl&lt;/a&gt; --\n----- voor mijn Nederlandse Sync. ondertitels ---- en meer ----\n------- http://www.Film-Test.nl ---- voor Films en meer -------\n---------------------------------------------------------------\n\nGeneral:\n\nComplete name                    : Red Dog\\Red Dog.avi\nFormat                           : AVI\nFormat/Info                      : Audio Video Interleave\nFile size                        : 1.53 GiB\nDuration                         : 1h 32mn\nOverall bit rate                 : 2 372 Kbps\n\nVideo:\n\nFormat                           : MPEG-4 Visual\nFormat profile                   : Simple@L3\nFormat settings, BVOP            : No\nFormat settings, QPel            : No\nFormat settings, GMC             : No warppoints\nFormat settings, Matrix          : Default (H.263)\nCodec ID                         : XVID\nCodec ID/Hint                    : XviD\nDuration                         : 1h 32mn\nBit rate                         : 1 913 Kbps\nWidth                            : 720 pixels\nHeight                           : 304 pixels\nDisplay aspect ratio             : 2.35:1\nFrame rate                       : 25.000 fps\nColor space                      : YUV\nChroma subsampling               : 4:2:0\nBit depth                        : 8 bits\nScan type                        : Progressive\nCompression mode                 : Lossy\nBits/(Pixel*Frame)               : 0.350\nStream size                      : 1.23 GiB (81%)\nWriting library                  : XviD 1.1.2 (UTC 2006-11-01)\n\nAudio:\n\nFormat                           : AC-3\nFormat/Info                      : Audio Coding 3\nMode extension                   : CM (complete main)\nCodec ID                         : 2000\nDuration                         : 1h 32mn\nBit rate mode                    : Constant\nBit rate                         : 448 Kbps\nChannel(s)                       : 6 channels\nChannel positions                : Front: L C R, Side: L R, LFE\nSampling rate                    : 48.0 KHz\nBit depth                        : 16 bits\nCompression mode                 : Lossy\nStream size                      : 296 MiB (19%)\nAlignment                        : Aligned on interleaves\nInterleave, duration             : 32 ms (0.80 video frame)\nInterleave, preload duration     : 32 ms\n\n","torrent":{"xt":"urn:btih:a94d92870ea8da18bc3dad96126f6a1fd43f57f3","amp;dn":"Red+Dog+2011+DVDrip+English+Klam","amp;tr":["udp%3A%2F%2Ftracker.openbittorrent.com%3A80","udp%3A%2F%2Fopen.demonii.com%3A1337","udp%3A%2F%2Ftracker.coppersurfer.tk%3A6969","udp%3A%2F%2Fexodus.desync.com%3A6969"],"infoHash":"a94d92870ea8da18bc3dad96126f6a1fd43f57f3","infoHashBuffer":{"type":"Buffer","data":[169,77,146,135,14,168,218,24,188,61,173,150,18,111,106,31,212,63,87,243]},"announce":[],"urlList":[]}}